<?xml version="1.0" encoding="UTF-8" standalone="no"?>
<!-- Created with Inkscape (http://www.inkscape.org/) -->

<svg
   xmlns:dc="http://purl.org/dc/elements/1.1/"
   xmlns:cc="http://creativecommons.org/ns#"
   xmlns:rdf="http://www.w3.org/1999/02/22-rdf-syntax-ns#"
   xmlns:svg="http://www.w3.org/2000/svg"
   xmlns="http://www.w3.org/2000/svg"
   xmlns:sodipodi="http://sodipodi.sourceforge.net/DTD/sodipodi-0.dtd"
   xmlns:inkscape="http://www.inkscape.org/namespaces/inkscape"
   width="512"
   height="512"
   viewBox="0 0 135.46666 135.46667"
   version="1.1"
   id="svg8"
   inkscape:version="0.92.1 r15371"
   sodipodi:docname="icon.svg"
   inkscape:export-filename="/home/rpj/a/projs/jumpy2/icon192.svg.png"
   inkscape:export-xdpi="36"
   inkscape:export-ydpi="36">
  <defs
     id="defs2" />
  <sodipodi:namedview
     id="base"
     pagecolor="#ffffff"
     bordercolor="#666666"
     borderopacity="1.0"
     inkscape:pageopacity="0"
     inkscape:pageshadow="2"
     inkscape:zoom="0.35"
     inkscape:cx="-290.00862"
     inkscape:cy="535.44834"
     inkscape:document-units="px"
     inkscape:current-layer="layer1"
     showgrid="false"
     units="px"
     inkscape:pagecheckerboard="true"
     showguides="false"
     inkscape:window-width="1600"
     inkscape:window-height="829"
     inkscape:window-x="0"
     inkscape:window-y="24"
     inkscape:window-maximized="1" />
  <metadata
     id="metadata5">
    <rdf:RDF>
      <cc:Work
         rdf:about="">
        <dc:format>image/svg+xml</dc:format>
        <dc:type
           rdf:resource="http://purl.org/dc/dcmitype/StillImage" />
        <dc:title />
      </cc:Work>
    </rdf:RDF>
  </metadata>
  <g
     inkscape:label="Layer 1"
     inkscape:groupmode="layer"
     id="layer1"
     transform="translate(0,-161.53332)">
    <path
       style="opacity:1;fill:#333333;fill-opacity:0.36574079;fill-rule:nonzero;stroke:none;stroke-width:0.25627607;stroke-miterlimit:4;stroke-dasharray:none;stroke-opacity:1"
       d="m 26.322839,166.66417 c -11.69016,0 -21.1017498,9.4116 -21.1017498,21.10175 v 87.97148 c 0,11.69017 9.4115898,21.10177 21.1017498,21.10177 h 87.971491 c 11.69017,0 21.10176,-9.4116 21.10176,-21.10177 v -87.97148 c 0,-11.69015 -9.41159,-21.10175 -21.10176,-21.10175 z m 4.37201,6.35624 h 79.227491 c 0.66194,0 1.31563,0.0335 1.95986,0.0985 0.64424,0.065 1.27877,0.16167 1.90214,0.28858 0.62337,0.12691 1.23563,0.28405 1.83499,0.46969 0.59935,0.18564 1.18617,0.40014 1.75835,0.64135 0.57217,0.2412 1.12993,0.50893 1.67178,0.80255 0.54185,0.29363 1.06739,0.61292 1.57575,0.9558 0.50837,0.34289 0.99954,0.70962 1.47127,1.0986 0.47174,0.38898 0.9244,0.80001 1.35633,1.23194 0.43193,0.43194 0.84296,0.88461 1.23195,1.35634 0.38899,0.47172 0.75572,0.96291 1.0986,1.47126 0.34288,0.50837 0.66217,1.0339 0.9558,1.57576 0.29362,0.54185 0.56185,1.0996 0.80305,1.67178 0.24121,0.57218 0.45522,1.159 0.64085,1.75836 0.18563,0.59935 0.34278,1.21161 0.46969,1.83497 0.12691,0.62337 0.22355,1.25792 0.28858,1.90214 0.065,0.64424 0.0985,1.29793 0.0985,1.95987 v 79.22749 c 0,0.66193 -0.0335,1.31563 -0.0985,1.95986 -0.065,0.64424 -0.16167,1.27878 -0.28858,1.90215 -0.12691,0.62337 -0.28406,1.23563 -0.46969,1.83498 -0.18563,0.59935 -0.39964,1.18617 -0.64085,1.75835 -0.2412,0.57218 -0.50943,1.12993 -0.80305,1.67179 -0.29363,0.54184 -0.61292,1.06738 -0.9558,1.57574 -0.34288,0.50838 -0.70961,0.99955 -1.0986,1.47127 -0.38899,0.47174 -0.80002,0.92441 -1.23195,1.35633 -0.43193,0.43194 -0.88459,0.84296 -1.35633,1.23194 -0.47173,0.389 -0.9629,0.75573 -1.47127,1.09861 -0.50836,0.34288 -1.0339,0.66217 -1.57575,0.9558 -0.54185,0.29362 -1.09961,0.56184 -1.67178,0.80304 -0.57218,0.24122 -1.159,0.45522 -1.75835,0.64085 -0.59936,0.18565 -1.21162,0.34279 -1.83499,0.4697 -0.62337,0.12691 -1.2579,0.22355 -1.90214,0.28858 -0.64423,0.065 -1.29792,0.0985 -1.95986,0.0985 H 30.694849 c -0.66194,0 -1.31563,-0.0335 -1.95987,-0.0985 -0.64423,-0.065 -1.27877,-0.16167 -1.90214,-0.28858 -0.62337,-0.12691 -1.23563,-0.28405 -1.83498,-0.4697 -0.59935,-0.18563 -1.18618,-0.39963 -1.75836,-0.64085 -0.57218,-0.2412 -1.12993,-0.50942 -1.67178,-0.80304 -0.54185,-0.29363 -1.06738,-0.61292 -1.57575,-0.9558 -0.50837,-0.34288 -0.99954,-0.70961 -1.47127,-1.09861 -0.47173,-0.38898 -0.92439,-0.8 -1.35633,-1.23194 -0.43193,-0.43192 -0.84296,-0.88459 -1.23194,-1.35633 -0.38899,-0.47172 -0.75572,-0.96289 -1.0986,-1.47127 -0.34288,-0.50836 -0.66218,-1.0339 -0.9558,-1.57574 -0.29362,-0.54186 -0.56135,-1.09961 -0.80256,-1.67179 -0.2412,-0.57218 -0.4557,-1.159 -0.64134,-1.75835 -0.18564,-0.59935 -0.34278,-1.21161 -0.46969,-1.83498 -0.12692,-0.62337 -0.22355,-1.25791 -0.28859,-1.90215 -0.065,-0.64423 -0.0985,-1.29793 -0.0985,-1.95986 V 192.1379 c 0,-0.66194 0.0335,-1.31563 0.0985,-1.95987 0.065,-0.64422 0.16167,-1.27877 0.28859,-1.90214 0.12691,-0.62336 0.28405,-1.23562 0.46969,-1.83497 0.18564,-0.59936 0.40014,-1.18618 0.64134,-1.75836 0.24121,-0.57218 0.50894,-1.12993 0.80256,-1.67178 0.29362,-0.54186 0.61292,-1.06739 0.9558,-1.57576 0.34288,-0.50835 0.70961,-0.99954 1.0986,-1.47126 0.38898,-0.47173 0.80001,-0.9244 1.23194,-1.35634 0.43194,-0.43193 0.8846,-0.84296 1.35633,-1.23194 0.47173,-0.38898 0.9629,-0.75571 1.47127,-1.0986 0.50837,-0.34288 1.0339,-0.66217 1.57575,-0.9558 0.54185,-0.29362 1.0996,-0.56135 1.67178,-0.80255 0.57218,-0.24121 1.15901,-0.45571 1.75836,-0.64135 0.59935,-0.18564 1.21161,-0.34278 1.83498,-0.46969 0.62337,-0.12691 1.25791,-0.22354 1.90214,-0.28858 0.64424,-0.065 1.29793,-0.0985 1.95987,-0.0985 z"
       id="rect5254-6"
       inkscape:connector-curvature="0" />
    <path
       style="opacity:1;fill:#d5f6ff;fill-opacity:1;fill-rule:nonzero;stroke:none;stroke-width:1.00568318;stroke-miterlimit:4;stroke-dasharray:none;stroke-opacity:1"
       d="M 100.49805 25.453125 C 97.899628 25.453125 95.333595 25.584553 92.804688 25.839844 C 90.27578 26.095135 87.784902 26.47446 85.337891 26.972656 C 82.89088 27.470853 80.487495 28.087689 78.134766 28.816406 C 75.782037 29.545123 73.478483 30.387133 71.232422 31.333984 C 68.98636 32.280836 66.796931 33.331773 64.669922 34.484375 C 62.542913 35.636977 60.479946 36.890362 58.484375 38.236328 C 56.488804 39.582294 54.560732 41.021883 52.708984 42.548828 C 50.857237 44.075773 49.080305 45.689227 47.384766 47.384766 C 45.689227 49.080305 44.075773 50.857237 42.548828 52.708984 C 41.021883 54.560732 39.582294 56.488804 38.236328 58.484375 C 36.890362 60.479946 35.636977 62.542913 34.484375 64.669922 C 33.331773 66.796931 32.280836 68.98636 31.333984 71.232422 C 30.387133 73.478483 29.545123 75.782037 28.816406 78.134766 C 28.087689 80.487495 27.470853 82.89088 26.972656 85.337891 C 26.47446 87.784902 26.095135 90.27578 25.839844 92.804688 C 25.584553 95.333595 25.453125 97.899628 25.453125 100.49805 L 25.453125 411.50195 C 25.453125 414.10037 25.584553 416.6664 25.839844 419.19531 C 26.095135 421.72422 26.47446 424.2151 26.972656 426.66211 C 27.470853 429.10912 28.087689 431.51251 28.816406 433.86523 C 29.545123 436.21796 30.387133 438.52152 31.333984 440.76758 C 32.280836 443.01364 33.331773 445.20307 34.484375 447.33008 C 35.636977 449.45709 36.890362 451.52005 38.236328 453.51562 C 39.582294 455.5112 41.021883 457.43927 42.548828 459.29102 C 44.075773 461.14276 45.689227 462.9197 47.384766 464.61523 C 49.080305 466.31077 50.857237 467.92423 52.708984 469.45117 C 54.560732 470.97812 56.488804 472.41771 58.484375 473.76367 C 60.479946 475.10964 62.542913 476.36302 64.669922 477.51562 C 66.796931 478.66823 68.98636 479.72112 71.232422 480.66797 C 73.478483 481.61482 75.782037 482.45488 78.134766 483.18359 C 80.487495 483.91231 82.89088 484.52915 85.337891 485.02734 C 87.784902 485.52554 90.27578 485.90487 92.804688 486.16016 C 95.333595 486.41545 97.899628 486.54688 100.49805 486.54688 L 411.50195 486.54688 C 414.10037 486.54688 416.6664 486.41545 419.19531 486.16016 C 421.72422 485.90487 424.2151 485.52554 426.66211 485.02734 C 429.10912 484.52915 431.51251 483.91231 433.86523 483.18359 C 436.21796 482.45488 438.52152 481.61482 440.76758 480.66797 C 443.01364 479.72112 445.20307 478.66823 447.33008 477.51562 C 449.45709 476.36302 451.52005 475.10964 453.51562 473.76367 C 455.5112 472.41771 457.43927 470.97812 459.29102 469.45117 C 461.14276 467.92423 462.9197 466.31077 464.61523 464.61523 C 466.31077 462.9197 467.92423 461.14276 469.45117 459.29102 C 470.97812 457.43927 472.41771 455.5112 473.76367 453.51562 C 475.10964 451.52005 476.36302 449.45709 477.51562 447.33008 C 478.66823 445.20307 479.72112 443.01364 480.66797 440.76758 C 481.61482 438.52152 482.45488 436.21796 483.18359 433.86523 C 483.91231 431.51251 484.52915 429.10912 485.02734 426.66211 C 485.52554 424.2151 485.90487 421.72422 486.16016 419.19531 C 486.41545 416.6664 486.54688 414.10037 486.54688 411.50195 L 486.54688 100.49805 C 486.54688 97.899628 486.41545 95.333595 486.16016 92.804688 C 485.90487 90.27578 485.52554 87.784902 485.02734 85.337891 C 484.52915 82.89088 483.91231 80.487495 483.18359 78.134766 C 482.45488 75.782037 481.61482 73.478483 480.66797 71.232422 C 479.72112 68.98636 478.66823 66.796931 477.51562 64.669922 C 476.36302 62.542913 475.10964 60.479946 473.76367 58.484375 C 472.41771 56.488804 470.97812 54.560732 469.45117 52.708984 C 467.92423 50.857237 466.31077 49.080305 464.61523 47.384766 C 462.9197 45.689227 461.14276 44.075773 459.29102 42.548828 C 457.43927 41.021883 455.5112 39.582294 453.51562 38.236328 C 451.52005 36.890362 449.45709 35.636977 447.33008 34.484375 C 445.20307 33.331773 443.01364 32.280836 440.76758 31.333984 C 438.52152 30.387133 436.21796 29.545123 433.86523 28.816406 C 431.51251 28.087689 429.10912 27.470853 426.66211 26.972656 C 424.2151 26.47446 421.72422 26.095135 419.19531 25.839844 C 416.6664 25.584553 414.10037 25.453125 411.50195 25.453125 L 100.49805 25.453125 z "
       id="path5867"
       transform="matrix(0.26458333,0,0,0.26458333,0,161.53332)" />
    <path
       id="path4540"
       transform="matrix(0.26458333,0,0,0.26458333,0,161.53332)"
       style="fill:#000000;fill-opacity:0.06944442;stroke:none;stroke-width:0.99999994px;stroke-linecap:butt;stroke-linejoin:miter;stroke-opacity:1"
       d="m 101.61328,368.75 c 0.0253,0.0319 0.19057,0.15547 0.5293,0.39258 1.80756,1.26529 3.77286,2.35883 5.7832,3.40039 -2.92124,-1.74072 -6.44167,-3.95619 -6.3125,-3.79297 z m 6.3125,3.79297 c 1.07777,0.64223 2.09809,1.23767 2.78906,1.59961 1.12309,0.58829 2.28991,1.08535 3.46094,1.57422 -2.0601,-1.07849 -4.17795,-2.1003 -6.25,-3.17383 z m 6.25,3.17383 c 4.19662,2.19698 8.13157,4.65606 10.82422,8.42578 2.35263,3.29367 -8.09977,0.19729 -12.14258,0 -5.72728,-0.27931 -11.45464,-0.70161 -17.142576,-1.42774 C 88.699969,381.81932 70.714571,378.09878 63.572266,377 c -4.028142,-0.61973 -8.102508,-0.9062 -12.144532,-1.42773 -3.339492,-0.43091 -6.669178,-0.93624 -10,-1.42969 -6.060978,-0.89791 -9.939804,-1.7064 -15.585937,-2.05469 1.930728,3.96764 3.78777,7.9989 6.019531,13.31445 1.751009,4.17049 3.532539,8.34704 4.837891,12.67774 1.665396,5.52525 3.590419,14.81128 2.146484,20.83789 -0.960283,4.008 -3.21215,7.59116 -4.818359,11.38672 0.785033,-1.26641 1.423805,-2.63606 2.355468,-3.79883 0.112275,-0.14022 0.407506,0.13404 0.439454,0.31055 0.17167,0.94941 -0.01698,1.93844 0.138672,2.89062 0.02124,0.13002 0.323663,0.034 0.359374,0.16211 0.466771,1.65611 0.81195,3.34789 1.107422,5.04297 0.454878,2.60961 0.761535,5.24188 1.142578,7.86328 -0.04417,3.6263 0.380169,7.20183 0.855469,10.77344 2.425423,0.65386 4.841741,1.35696 7.119141,2.39844 3.633139,1.66144 7.133185,3.67526 10.34375,6.05273 6.647834,4.9228 9.232126,8.8787 14.173828,15.0625 0.654954,1.07957 1.348859,2.16169 2.03125,3.25391 0.93197,0.44405 1.854425,0.90811 2.773438,1.38086 0.260406,0.0641 0.530353,0.13907 0.80664,0.22265 1.55991,0.16931 3.120172,0.34298 4.681641,0.48438 3.475982,0.31483 6.816474,0.0501 10.082031,1.77148 0.89015,0.46921 1.704356,1.05753 2.498047,1.67774 1.466934,-0.0931 2.983973,-0.13843 4.564453,-0.11914 v 0.002 c 8.89146,0.10847 17.79043,-0.017 26.6875,-0.043 8.89707,-0.026 17.79237,0.0465 26.67773,0.55469 5.78964,0.33108 11.56508,0.91352 17.32227,1.60937 8.71881,1.05377 12.32114,1.98323 20.26953,3.70117 0.94139,0.10772 1.8767,0.3246 2.82422,0.32422 0.12688,-7e-5 -0.31979,-0.28453 -0.19922,-0.32422 0.68567,-0.22488 1.42536,-0.23508 2.14258,-0.31445 1.51434,-0.16743 3.03062,-0.32422 4.55078,-0.42578 4.78285,-0.31937 5.79369,-0.23582 10.5293,-0.2207 5.37848,0.33902 10.74676,0.18818 16.13086,0.16211 18.697,-4e-5 37.39284,0.0433 56.08984,0.0293 11.86347,-0.0113 23.72832,-0.003 35.5918,-0.002 5.72329,1.1e-4 11.44663,1.5e-4 17.16992,0 1.97097,-4e-5 3.94305,-0.0868 5.91211,0 5.01589,0.22072 7.76048,0.61405 12.43555,1.17187 0.25908,0.0213 0.51838,0.0413 0.77734,0.0645 0.28397,-0.0761 0.56699,-0.15556 0.85351,-0.22071 0.95767,-0.2177 1.96349,-0.0449 2.94532,-0.0684 2.12796,0.0302 4.25468,0.0942 6.38281,0.0645 2.42632,-0.0788 4.82176,-0.0605 7.21289,0.0742 -0.12485,-0.19682 -0.25538,-0.39026 -0.37891,-0.58789 -3.5657,-5.70513 -8.44166,-14.29562 -12.85546,-19.28516 -2.79099,-3.155 -6.20033,-5.70595 -9.28711,-8.57227 -3.57992,-3.3242 -7.14146,-6.66668 -10.71289,-10 -7.52534,-7.02364 -12.32979,-12.07267 -20.71485,-17.85546 -1.8218,-1.25643 -18.33008,-10.95213 -20.71484,-12.14454 -3.2437,-1.62183 -6.68601,-2.81227 -10,-4.28515 -3.11519,-1.38452 -6.05109,-3.20712 -9.28516,-4.28516 -3.23406,-1.07799 -6.66169,-1.45191 -10,-2.14258 -3.56662,-0.73791 -7.09915,-1.70434 -10.71484,-2.14257 -8.07204,-0.97845 -19.14787,-0.71485 -27.14258,-0.71485 h -26.42773 -27.85743 -9.28711 c -1.95211,0 -7.60524,0.20128 -9.28515,-0.71484 -1.3384,-0.73006 -1.94268,-2.35066 -2.85742,-3.57031 -1.22891,-1.63854 -2.37985,-3.33331 -3.57032,-5 -1.19048,-1.66666 -2.43614,-3.29585 -3.57226,-5 C 146.37235,394.41731 145.83299,393.11065 145,392 c -2.19017,-2.92025 -6.82665,-4.96309 -10,-6.42773 -1.64638,-0.75988 -3.3262,-1.44714 -5,-2.14454 -1.18355,-0.49315 -2.42544,-0.8543 -3.57227,-1.42773 -1.24174,-0.62086 -2.37983,-1.42829 -3.57031,-2.14258 -1.90476,-0.9524 -3.78795,-1.95067 -5.71484,-2.85742 -0.97461,-0.45865 -1.97192,-0.86787 -2.9668,-1.2832 z m -155.222655,-3.71875 c -2.737099,0.0114 -6.008421,0.10994 -7.525391,0.71679 -1.563171,0.62525 -2.379837,2.37984 -3.570312,3.57032 -0.714285,0.71429 -1.55544,1.3206 -2.142578,2.14257 -1.436614,2.01128 -1.567391,3.41406 -2.142578,5.71485 -0.238111,0.95236 -0.606436,1.88173 -0.714844,2.85742 -0.131452,1.18318 0,2.38179 0,3.57227 v 5 10 20.71289 c 0,3.3182 -0.205652,5.3649 0.146484,7.67382 0.156674,-0.35356 0.30832,-0.70474 0.480469,-1.07031 2.035325,-4.32215 5.292144,-7.9574 7.9375,-11.93555 3.658046,-2.91107 6.900468,-6.43953 10.974609,-8.73242 3.152278,-1.77405 6.049742,-2.97333 8.916016,-3.76758 0.173317,-1.92933 0.292088,-3.84359 0.417969,-5.88281 0.109421,-1.77256 0.195528,-3.54703 0.292969,-5.32031 0.502542,-9.14553 4.610291,-14.09023 9.154296,-15.17383 -0.228753,-0.45394 -0.460729,-0.9064 -0.6875,-1.36133 -1.504664,-3.01851 -2.662136,-5.92864 -3.513672,-8.71484 h -15.548828 c -0.708715,0 -1.562243,-0.006 -2.474609,-0.002 z m 11.919922,40.32422 c -0.514915,0.40946 -0.909066,0.78825 -1.085938,1.09375 0.319315,-0.26397 0.671214,-0.49435 1.025391,-0.72266 0.02005,-0.12369 0.0425,-0.24713 0.06055,-0.37109 z m -4.751953,25.25781 c -0.527628,0.6191 -1.029119,1.25718 -1.433594,1.96289 -3.551173,6.19593 -2.832454,10.64938 -3.273438,17.76562 -0.101026,1.63046 -0.204666,3.26048 -0.30664,4.89063 0.02286,0.0292 0.04554,0.0588 0.06836,0.0879 0.388449,-0.67974 0.798828,-1.34765 1.220703,-1.99414 0.09477,-0.14523 0.205971,-0.28696 0.31836,-0.42774 0.225581,-4.47828 0.574759,-9.34207 1.30664,-11.66796 0.477632,-1.51791 1.115961,-2.97105 1.822266,-4.39844 0.104765,-2.07239 0.21072,-4.14523 0.277344,-6.21875 z m 387.843746,54.44726 c -0.38749,3.3e-4 -0.7727,0.0258 -1.14453,0.125 -2.5565,0.68141 -10.14661,2.89111 -7.52734,2.51758 3.11779,-0.44457 6.03214,-1.81317 9.07422,-2.63476 -0.13456,-0.004 -0.26819,-0.008 -0.40235,-0.008 z m 0.64649,0.0117 c 0.38714,0.0343 0.7742,0.0723 1.16211,0.0957 0.21687,0.0113 -0.42924,-0.0871 -0.64649,-0.0859 -0.17074,8.4e-4 -0.34335,-0.005 -0.51562,-0.01 z m 37.45703,30.8711 c -0.53201,4.24388 -1.06466,8.48695 -1.74414,12.69922 -0.2658,1.64772 -0.43673,2.98735 -0.56445,4.18164 1.35061,0.45402 2.71755,0.85726 4.10156,1.17968 1.52328,-2.59259 3.3717,-6.2434 5.35156,-10.32031 -1.96389,-1.85366 -3.90627,-3.72824 -5.64062,-5.79297 -0.52825,-0.62886 -1.02357,-1.28201 -1.50391,-1.94726 z m 1.79297,18.06054 c -3.09786,5.27249 -4.90507,6.33328 -4.10156,-1.17968 -0.24994,-0.084 -0.5034,-0.15613 -0.75196,-0.24414 -1.15627,-0.51633 -4.20325,-2.15082 -5.4375,-2.19141 -1.25582,-0.0412 -2.51209,0.10012 -3.76758,0.15039 -1.78155,-0.11452 -3.5622,-0.22923 -5.34375,-0.34375 -1.01107,-0.20107 -2.02852,-0.37071 -3.0332,-0.60156 -0.0633,-0.0147 0.0257,-0.17685 0.13281,-0.32813 -2.11051,-0.13063 -4.24883,0.10657 -6.36132,0.008 -2.09375,0.0272 -4.188,0.002 -6.28125,-0.0469 -1.83064,0.39202 -5.21243,0.32719 -7.03516,0.2168 -1.20536,-0.0729 -2.40486,-0.2201 -3.60742,-0.33008 -0.60308,-0.0752 -6.5282,-0.82385 -7.07422,-0.84766 -1.9688,-0.0858 -3.94143,-4e-5 -5.91211,0 -5.72464,1.5e-4 -11.44919,1.2e-4 -17.17383,0 -11.85178,-6.8e-4 -23.70292,-0.006 -35.55469,0.004 -18.65344,0.0151 -37.3075,-0.0312 -55.96093,-0.0312 -5.54581,0.0113 -11.09021,0.18976 -16.63086,-0.16211 -2.16648,-0.034 -3.93388,-0.10136 -6.0918,0.0312 -3.09156,0.19238 -6.15276,0.78224 -9.24805,0.90039 -7.1418,0.2725 -7.06472,-0.01 -13.72656,-1.00977 -5.73132,-1.29456 -8.64302,-2.05985 -14.95898,-2.86523 -22.04676,-2.81129 -44.28081,-1.73643 -66.44141,-1.91992 -0.951684,-0.008 -1.874644,-0.0434 -2.785156,-0.0918 -0.04705,0.009 -0.09352,0.019 -0.140625,0.0273 -0.787047,0.6945 -1.575278,1.38616 -2.375,2.06055 -0.01427,0.85284 -0.03128,1.70571 -0.03906,2.5586 1.829002,3.39252 3.728781,6.74751 5.462891,10.18945 1.170623,2.3235 2.213593,4.71155 3.232423,7.10547 0.0556,0.13066 0.0434,0.10384 0.0957,0.22656 2.54635,0.47759 5.03002,0.90856 7.04883,1.17187 7.62462,0.99455 9.12871,0.71485 17.14258,0.71485 h 21.42969 80 c 6.90475,0 13.84886,-0.7488 20.71289,0 7.30275,0.79668 28.79304,6.8687 35.71484,10 4.57615,2.07016 8.51071,5.34093 12.85742,7.85742 0.20606,0.11943 0.47675,0 0.71485,0 7.01607,0 2.49099,0.4108 11.42773,-2.14258 18.07502,-5.16431 -2.7799,0.95331 16.42773,-4.28515 2.39821,-0.65405 4.74943,-1.47923 7.14454,-2.14454 1.89174,-0.5255 3.85027,-0.80683 5.71289,-1.42773 1.01015,-0.33676 1.87872,-1.00832 2.85742,-1.42773 0.69204,-0.2967 1.40428,-0.56722 2.14258,-0.71485 2.72417,-0.54485 0.11963,1.0115 3.57226,-0.71484 1.12224,-0.56111 4.24506,-3.03109 5,-3.57031 0.69856,-0.49898 1.35353,-1.09154 2.14258,-1.42969 0.90232,-0.38669 1.95511,-0.32824 2.85742,-0.71485 6.8787,-2.94799 -4.13358,0.0992 5.71485,-2.85546 5.17296,-1.55188 1.83279,-0.20427 6.42773,-0.71485 3.58651,3.99772 2.79981,-1.18213 4.28516,-1.42969 1.17427,-0.19578 2.38179,0 3.57226,0 h 7.85742 10 2.14258 c 1.19048,0 2.40819,-0.25814 3.57031,0 2.14285,0.47619 2.5014,1.5493 4.28711,2.14454 0.22602,0.0752 0.51481,-0.13191 0.71289,0 0.56036,0.37341 0.85222,1.08126 1.42969,1.42773 0.64562,0.38736 1.46911,0.37813 2.14258,0.71484 0.30123,0.15043 0.41369,0.56232 0.71484,0.71289 0.21317,0.10659 0.49996,-0.10658 0.71289,0 0.30123,0.15081 0.47674,0.47678 0.71485,0.71485 0.47618,0.47622 1.02562,0.89091 1.42969,1.42969 0.31937,0.42591 0.54455,0.92267 0.71289,1.42773 0.0752,0.22602 -0.16819,0.5465 0,0.71484 0.16856,0.16857 0.5465,0.16857 0.71484,0 0.16857,-0.16819 0,-0.47673 0,-0.71484 v -0.71484 c 0,-0.88056 -0.15269,-2.80662 0,-3.57032 0.19238,-0.96264 0.47673,-1.90501 0.71484,-2.85742 -3.61953,-6.63579 -3.82048,-7.52929 -5.14257,-8.80469 -0.84946,0.0614 -1.70378,0.10634 -2.41016,0.25782 -4.77424,1.02376 -9.61643,0.75143 -14.30078,-0.33985 z M 99.958984,551.40039 c 0.0087,0.0949 0.02448,0.19162 0.03516,0.28711 0.251939,0.0515 0.499279,0.094 0.751949,0.14453 -0.25832,-0.17049 -0.52016,-0.32437 -0.787106,-0.43164 z" />
    <path
       id="path4536"
       transform="matrix(0.26458333,0,0,0.26458333,0,161.53332)"
       style="fill:#ffffff;fill-opacity:0.68981479;stroke:none;stroke-width:0.89999998;stroke-linecap:butt;stroke-linejoin:miter;stroke-miterlimit:4;stroke-dasharray:none;stroke-opacity:1"
       d="m 461.64062,8.6738281 v 1.0039063 c 0.29953,-0.1202778 0.59869,-0.2294772 0.89844,-0.3652344 -0.2942,-0.2069152 -0.60524,-0.4319293 -0.89844,-0.6386719 z M 347.25,21.066406 c -2.49758,0.03024 -5.24531,0.47837 -7.61719,1.160156 -0.53608,0.153906 -0.9565,0.577708 -1.45703,0.824219 1.31475,8.417122 1.48092,10.169634 -4.36328,10.269531 -0.64139,13.319365 -0.74336,9.474169 -0.61133,0.0078 -2.5844,-3.86e-4 -6.211,-0.234783 -11.24414,-0.341797 -2.79621,-0.05405 -5.59232,-0.115243 -8.38867,-0.162109 -1.69846,-0.02646 -3.40026,0.04257 -5.0957,-0.0625 -0.19888,-0.01134 -0.32635,-0.256054 -0.52344,-0.285157 -0.24352,-0.03779 -0.49075,0.05274 -0.73242,0.09961 -3.44113,0.667691 -6.82319,1.729608 -10.31446,2.042969 -0.57237,0.05135 -1.14584,0.05425 -1.71875,0.02734 -6.24685,0.971696 -12.55151,1.725382 -18.87695,1.88086 -0.41871,0.01024 -0.84222,0.04295 -1.26562,0.07031 -0.78162,1.788713 -5.30925,-0.380841 -7.74414,-0.363281 -3.61268,0.02646 -13.40699,0.0077 -17.4043,0.0039 3.95955,-5.043243 0.0237,-2.338794 -2.80078,-0.734375 0.003,0.236332 0.007,0.472652 0.01,0.708985 0.005,0.356739 -1.04504,0.354263 -1.07617,0.0039 -0.0937,2.8e-5 -0.1875,-2.6e-5 -0.28125,0 -0.58351,0.255538 -0.96775,0.31386 -0.97266,0 -4.72915,10e-4 -9.45834,9.35e-4 -14.1875,0 -0.94122,-1.51e-4 -1.88104,2.27e-4 -2.82226,0 -0.21457,-3.8e-5 -0.64323,0.214488 -0.64453,0 -0.0286,-4.713179 -0.002,-9.427214 0.0371,-14.140625 h -11.16016 c -2.79826,9.683216 -2.99889,10.074871 -10.63086,0 h -2.2207 C 195.08707,28.590601 187.37552,35.527696 179.28516,42 c -10.43548,8.348379 -13.21479,10.437727 -13.38868,10.453125 -1.68491,1.464289 -4.25921,3.681386 -9.46875,8.119141 -7.01202,5.973203 -14.61124,11.597008 -20.71289,18.570312 -1.34874,1.541405 -2.38179,3.333304 -3.57226,5 -1.19048,1.666658 -2.51654,3.243729 -3.57031,5 -1.7522,2.920366 -3.4426,6.621972 -4.28711,10 -0.90999,3.639992 -0.71289,4.333732 -0.71289,7.857422 v 2.14258 c 0,0.47618 -0.15058,0.97792 0,1.42969 0.10646,0.31937 0.39346,0.60642 0.71289,0.71289 3.28882,1.09629 6.6846,1.84435 10,2.85742 28.72001,8.77553 3.09557,1.22666 40,14.28515 7.31125,2.58705 14.78509,4.69204 22.14257,7.14454 40.47159,13.49053 9.51462,4.04898 45,14.28515 5.71919,1.64977 11.3624,3.58657 17.14454,5 12.93135,3.16101 16.84304,3.00155 30,4.28516 4.76304,0.46465 9.50647,1.17139 14.28515,1.42969 4.04172,0.21845 8.09496,0 12.14258,0 H 328.57227 360 h 7.14258 c 2.38095,0 4.76491,-0.12511 7.14258,0 2.15306,0.11338 4.37373,0.0636 6.42968,0.71289 2.53845,0.8016 4.9277,2.09568 7.14258,3.57226 2.10592,1.40395 3.73846,3.41891 5.71485,5 4.8692,3.89537 5.14301,2.43252 7.85546,7.85742 0.9371,1.8742 -2.34731,4.69658 -2.85546,5.71289 -0.43903,0.87806 -0.40444,1.92611 -0.71485,2.85743 -0.16857,0.50509 -0.54646,0.92463 -0.71484,1.42968 -0.13418,0.40301 0,1.67324 0,2.14258 0,4.15344 -0.50188,6.03331 2.14258,10 1.30745,1.96116 3.43406,3.23836 5,5 2.24817,2.52922 4.26333,5.25775 6.42968,7.85742 2.13457,2.56143 5.27559,6.92293 8.57032,8.57032 2.09741,1.0487 4.22134,2.06874 6.42968,2.85742 1.14335,0.40834 2.37984,0.47677 3.57032,0.71484 2.38095,0.47618 4.74753,1.02854 7.14257,1.42774 1.89347,0.31559 3.83253,0.33844 5.71485,0.71484 2.8879,0.57755 5.66724,1.65842 8.57226,2.14258 2.82804,0.47134 5.72845,0.33579 8.57032,0.71484 4.30673,0.57423 8.53281,1.72407 12.85742,2.14258 3.08084,0.2982 6.18995,0 9.28515,0 h 8.4961 v -31.12695 -35.35547 -29.29492 c 0,-3.9038 -0.093,-7.80824 0,-11.71094 0.0854,-3.59161 0.35653,-7.1755 0.53515,-10.76367 0.58659,-7.39242 0.25055,-6.19249 1.73829,-13.30469 0.0616,-0.29423 0.1518,-0.581656 0.23437,-0.871094 -0.0427,0.101409 -0.0769,0.142746 -0.084,0.0098 -0.10291,-1.942442 0.42204,-4.838458 0.96093,-7.414062 0.023,-3.942301 0.28684,-7.886579 0.6875,-11.806641 -0.44951,-0.551205 -0.90283,-1.099744 -1.34765,-1.654297 -10.71848,-13.362406 -16.60457,-22.660184 -25.28906,-37.341797 -2.81897,-4.765625 -5.40995,-9.661577 -8.0918,-14.505859 -8.31094,24.594751 -35.90183,22.65845 -41.1875,-5.792969 H 389.28711 361.82422 Z M 165.89648,52.453125 c 4.50669,-3.916568 -0.25189,0.02231 0,0 z M 277.17383,31.357422 c 0.18805,1.493531 0.37791,2.986578 0.5957,4.474609 0.0151,0.103181 0.20623,-0.03856 0.30859,-0.05859 0.26121,-1.346322 0.522,-2.692741 0.78321,-4.039063 -0.56297,-0.123919 -1.12488,-0.251519 -1.6875,-0.376953 z m 255.12305,8.753906 c -0.33198,0.09219 -0.75516,0.208066 -1.10547,0.304688 1.85234,3.364849 3.51203,6.2666 5.02539,8.943359 -0.9506,-2.18557 -1.68894,-4.460315 -2.64453,-6.644531 -0.38728,-0.885165 -0.82894,-1.746107 -1.27539,-2.603516 z" />
    <path
       style="fill:#ffffff;stroke:#000000;stroke-width:0.99999999;stroke-linecap:butt;stroke-linejoin:miter;stroke-opacity:1;fill-opacity:1;stroke-miterlimit:4;stroke-dasharray:none"
       d="m 52.160713,188.33183 c -1.700893,-0.94494 -3.212796,-0.94494 -5.291667,-3.2128 -2.078868,-2.26786 -10.394344,-5.29167 -14.930059,-5.29167 -4.535713,0 3.96875,9.6384 3.96875,9.6384 0,0 1.031343,0.18477 7.559524,2.83482 6.528181,2.65004 6.528181,2.65004 6.528181,2.65004 z"
       id="path4542"
       inkscape:connector-curvature="0" />
    <path
       id="rect5898"
       transform="matrix(0.26458333,0,0,0.26458333,0,161.53332)"
       style="opacity:1;fill:#d4ff2a;fill-opacity:1;fill-rule:nonzero;stroke:#000000;stroke-width:3.46044087;stroke-linejoin:miter;stroke-miterlimit:4;stroke-dasharray:none;stroke-dashoffset:0;stroke-opacity:1"
       d="m -115.43945,318.31641 c -15.63646,-0.3276 -29.7892,10.3163 -33.36914,26.1914 l -4.0293,17.8711 c -4.09137,18.14297 7.2203,36.0434 25.36328,40.13476 l 112.322266,25.33008 v -0.39063 -4.65429 c 2e-6,-8.70565 2e-6,-17.41156 0,-26.11719 -0.0803,-0.66925 -0.151296,-1.34042 -0.210937,-2.01172 -0.338352,-3.80835 -0.239646,-7.63259 -0.04297,-11.44726 -0.277703,-0.0837 -0.519551,-0.1614 -0.804688,-0.2461 -1.099064,-0.32655 0.01123,-2.29293 0.01758,-3.43945 0.02468,-4.44769 0.02207,-4.77225 0.02539,-5.79102 -0.02268,-0.38288 -0.03995,-0.76475 -0.06641,-1.14843 -0.04665,-0.67661 -0.579288,-5.27819 -0.398437,-6.91797 0.02075,-0.18822 0.184081,-0.33228 0.27539,-0.49805 -0.867152,-2.5231 -0.108141,-0.71 -3.318359,-4.63281 -1.525998,-1.86471 -3.149118,-3.65542 -4.564453,-5.60547 -3.527064,-4.8596 -6.6346,-9.87626 -8.541016,-15.63086 -0.348428,-1.05175 -0.576401,-2.13489 -0.773438,-3.22656 l -75.119142,-16.94141 c -2.26787,-0.51142 -4.53184,-0.78132 -6.76562,-0.82812 z m 131.601559,28.97851 v 12.01367 c 0.0863,3.62223 -0.11458,7.25365 0,10.875 0.09642,3.04755 0.459025,6.09795 0.617188,9.14453 0.01311,2.05614 0.05711,2.01582 -0.07617,3.88672 -0.01545,0.21679 -0.04063,0.43244 -0.06445,0.64844 0.0023,0.0405 0.0029,0.0622 0.0098,0.27734 0.04583,2.72062 0.02381,5.44135 0.01758,8.16211 0.0019,1.94143 0.0023,3.88475 0.002,5.82618 -7.04e-4,4.50398 -5.9e-5,9.00779 0,13.51171 1.1e-5,2.90268 -1.9e-5,5.80436 0,8.70704 1.2e-5,2.01044 1e-6,4.0208 0,6.03125 v 1.25 c 0.231088,0.59541 0.277672,1.1084 0,1.48047 v 1.86132 c -9.84e-4,1.87132 0.01855,3.1536 -0.150391,4.01368 l 146.083982,32.94335 c 18.14298,4.09137 36.0434,-7.2203 40.13477,-25.36328 l 4.02929,-17.87109 c 4.09137,-18.14298 -7.2203,-36.0434 -25.36328,-40.13477 z m -32.203125,34.9707 c -0.227318,0.0338 -0.06345,0.96539 -0.0625,0.72461 9.59e-4,-0.24248 0.03713,-0.48307 0.0625,-0.72461 z" />
    <path
       id="rect5898-6"
       transform="matrix(0.26458333,0,0,0.26458333,0,161.53332)"
       style="opacity:1;fill:#d4ff2a;fill-opacity:1;fill-rule:nonzero;stroke:#000000;stroke-width:3.46044087;stroke-linejoin:miter;stroke-miterlimit:4;stroke-dasharray:none;stroke-dashoffset:0;stroke-opacity:1"
       d="M 492.44727,92.224609 239.56836,149.16016 c -18.14438,4.08514 -29.46405,21.98062 -25.37891,40.125 l 4.02539,17.87109 c 4.08515,18.14438 21.98063,29.46405 40.125,25.37891 l 231.58399,-52.14063 v -14.87695 -29.29492 c 0,-3.9038 -0.093,-7.80824 0,-11.71094 0.0854,-3.59161 0.35653,-7.1755 0.53515,-10.76367 0.58659,-7.39242 0.25055,-6.19249 1.73829,-13.30469 0.0616,-0.29423 0.1518,-0.581656 0.23437,-0.871094 -0.0427,0.101409 -0.0769,0.142851 -0.084,0.0098 -0.0352,-0.663729 0.0129,-1.456975 0.0996,-2.298828 z" />
    <path
       style="fill:#000000;fill-opacity:0.3287037;stroke:none;stroke-width:0.26458332;stroke-linecap:butt;stroke-linejoin:miter;stroke-miterlimit:4;stroke-dasharray:none;stroke-opacity:1"
       d="m 30.694098,269.69553 1.110975,2.58202 4.677216,-4.00904 c 0,0 -0.133633,13.49711 14.29892,16.03617 14.432555,2.53906 41.56041,-4.27631 41.56041,-4.27631 0,0 5.345391,-3.20724 9.888971,-1.20272 4.3834,1.0434 5.68221,-2.91096 6.1472,-3.8754 0.83806,-1.73823 2.52271,-32.67781 -2.27179,-42.09495 -3.98738,-7.83184 -9.087164,-1.87089 -9.087164,-1.87089 -22.108245,12.90371 -44.083013,19.9427 -66.324736,38.71112"
       id="path5244"
       inkscape:connector-curvature="0"
       sodipodi:nodetypes="cccsccsscc" />
    <path
       style="fill:#ffffff;fill-opacity:1;stroke:#000000;stroke-width:0.87348902;stroke-linecap:butt;stroke-linejoin:miter;stroke-miterlimit:4;stroke-dasharray:none;stroke-opacity:1"
       d="m 42.637684,257.45717 c -0.121732,1.26044 -0.01392,7.431 -0.135656,7.57922 0.338635,-0.1226 -1.485474,-0.30429 -3.958178,0.21791 -2.472704,0.5222 -5.594004,1.74829 -7.84975,4.44123 0.167382,-0.28827 -3.088188,-3.92177 -2.380124,-6.90763 0,0 3.124437,-4.99493 14.323708,-5.33073 z"
       id="path5242"
       inkscape:connector-curvature="0"
       sodipodi:nodetypes="ccsccc" />
    <path
       style="fill:#ffeeaa;stroke-width:1.01015258"
       d=""
       id="path5050"
       inkscape:connector-curvature="0"
       transform="matrix(0.26458333,0,0,0.26458333,0,161.53332)" />
    <ellipse
       style="fill:#782121;stroke-width:0.23111063"
       id="path5077"
       cx="44.642677"
       cy="220.26938"
       rx="1.4920791"
       ry="1.8994257" />
    <ellipse
       style="fill:#782121;stroke-width:0.23111063"
       id="path5079"
       cx="72.646301"
       cy="223.94984"
       rx="2.6396937"
       ry="3.205471" />
    <ellipse
       style="opacity:0.01000001;fill:#0000ff;stroke:#000000;stroke-width:0.87348902;stroke-miterlimit:4;stroke-dasharray:none;stroke-opacity:1"
       id="path5140"
       cx="67.252151"
       cy="276.66202"
       rx="5.2793875"
       ry="4.630125" />
    <ellipse
       style="opacity:0;fill:#000000;fill-opacity:1;stroke:none;stroke-width:0.87348902;stroke-miterlimit:4;stroke-dasharray:none;stroke-opacity:1"
       id="path5164"
       cx="113.96325"
       cy="254.10503"
       rx="1.4920008"
       ry="2.0182595" />
    <path
       style="fill:#ffd5d5;fill-opacity:1;stroke:#000000;stroke-width:0.87348902;stroke-linecap:butt;stroke-linejoin:miter;stroke-miterlimit:4;stroke-dasharray:none;stroke-opacity:1"
       d="m 90.667205,271.81543 c 0,0 8.602341,3.02215 -8.440032,6.54799 -17.04237,3.52584 -30.35165,2.35056 -30.35165,2.35056 0,0 -13.471589,1.67896 -14.932363,-14.60705 -1.460775,-16.28601 6.167715,-25.01666 6.167715,-25.01666 l 42.849389,-20.81923 z"
       id="path5192"
       inkscape:connector-curvature="0"
       sodipodi:nodetypes="cscsc" />
    <path
       style="fill:#ffffff;stroke:#000000;stroke-width:0.87348902;stroke-linecap:butt;stroke-linejoin:miter;stroke-miterlimit:4;stroke-dasharray:none;stroke-opacity:1"
       d="m 83.550109,219.67743 c 5.356172,0.67159 22.723161,7.38747 22.398541,25.01666 -0.32462,17.62919 5.68079,33.91521 -8.115409,28.20671 -13.796209,-5.7085 -26.293948,5.3727 -26.293948,5.3727 l -4.382322,-4.53322 c 0,0 8.764648,-10.57751 22.07393,-10.9133"
       id="path5188"
       inkscape:connector-curvature="0" />
    <path
       style="fill:#ffffff;stroke:#000000;stroke-width:0.87348902;stroke-linecap:butt;stroke-linejoin:miter;stroke-miterlimit:4;stroke-dasharray:none;stroke-opacity:1"
       d="m 66.183949,180.14062 c -17.366257,0.18334 -19.590293,13.2981 -19.590293,13.2981 l -0.458901,28.73008 39.939504,4.0368 v -34.66661 c 0,0 -0.917959,-11.16001 -19.051507,-11.39745 -0.283335,-0.004 -0.563148,-0.004 -0.838803,-9.2e-4 z"
       id="path5042"
       inkscape:connector-curvature="0" />
    <path
       style="fill:#ffffff;fill-opacity:1;stroke:#000000;stroke-width:1;stroke-linecap:butt;stroke-linejoin:miter;stroke-miterlimit:4;stroke-dasharray:none;stroke-opacity:1"
       d="m 79.6111,186.5464 c 1.700893,-0.94494 3.212796,-0.94494 5.291667,-3.2128 2.078868,-2.26786 10.394344,-5.29167 14.930059,-5.29167 4.535714,0 -3.96875,9.6384 -3.96875,9.6384 0,0 -1.031343,0.18477 -7.559524,2.83482 -6.528181,2.65004 -6.528181,2.65004 -6.528181,2.65004 z"
       id="path4542-3"
       inkscape:connector-curvature="0" />
    <path
       style="fill:#ffffff;stroke:#000000;stroke-width:1;stroke-miterlimit:4;stroke-dasharray:none;stroke-opacity:1"
       id="path5095"
       sodipodi:type="arc"
       sodipodi:cx="-79.66256"
       sodipodi:cy="-212.15222"
       sodipodi:rx="9.98493"
       sodipodi:ry="24.098595"
       sodipodi:start="0"
       sodipodi:end="3.1492728"
       d="m -69.677629,-212.15222 a 9.98493,24.098595 0 0 1 -5.014619,20.90077 9.98493,24.098595 0 0 1 -10.006985,-0.0927 9.98493,24.098595 0 0 1 -4.947962,-20.99311 l 9.984635,0.18508 z"
       transform="matrix(-0.99998778,-0.00494396,0.00526438,-0.99998614,0,0)" />
    <path
       style="opacity:1;fill:#ffffff;fill-opacity:1;fill-rule:nonzero;stroke:#000000;stroke-width:1.00028347;stroke-miterlimit:4;stroke-dasharray:none;stroke-opacity:1"
       id="path5896"
       sodipodi:type="arc"
       sodipodi:cx="-46.800488"
       sodipodi:cy="-207.14891"
       sodipodi:rx="8.7824154"
       sodipodi:ry="19.050291"
       sodipodi:start="0"
       sodipodi:end="3.1186289"
       d="m -38.018072,-207.14891 a 8.7824154,19.050291 0 0 1 -8.681579,19.04903 8.7824154,19.050291 0 0 1 -8.880936,-18.6116 l 8.780099,-0.43743 z"
       transform="matrix(-0.99915667,-0.04106033,0.00740374,-0.99997259,0,0)" />
    <ellipse
       style="fill:#000000;stroke:#000000;stroke-width:0.87348902;stroke-miterlimit:4;stroke-dasharray:none;stroke-opacity:1"
       id="path5124"
       cx="40.278572"
       cy="202.88719"
       rx="1.6230829"
       ry="1.3431766" />
    <ellipse
       style="fill:#000000;stroke:#000000;stroke-width:0.87348902;stroke-miterlimit:4;stroke-dasharray:none;stroke-opacity:1"
       id="path5126"
       cx="82.83197"
       cy="204.63594"
       rx="2.272316"
       ry="2.4345071" />
    <path
       style="fill:none;stroke:#000000;stroke-width:0.87348902;stroke-linecap:butt;stroke-linejoin:miter;stroke-miterlimit:4;stroke-dasharray:none;stroke-opacity:1"
       d="m 48.953972,248.058 c 0,0 5.356174,-3.27399 10.063115,-7.80722 4.706939,-4.53322 6.411176,-1.25922 6.411176,-1.25922 0,0 2.840396,1.59502 -4.13886,5.62455 -6.979257,4.02953 -8.115415,4.61716 -8.115415,4.61716"
       id="path5217"
       inkscape:connector-curvature="0" />
    <ellipse
       style="fill:#ffaaaa;stroke:#000000;stroke-width:0.87348902;stroke-miterlimit:4;stroke-dasharray:none;stroke-opacity:1"
       id="path5040"
       cx="56.234295"
       cy="228.10507"
       rx="29.840015"
       ry="14.602702" />
    <path
       style="fill:#ffffff;stroke:#000000;stroke-width:0.87348902;stroke-linecap:butt;stroke-linejoin:miter;stroke-miterlimit:4;stroke-dasharray:none;stroke-opacity:1"
       d="m 90.206006,234.75346 c 4.30911,-7.25273 9.616462,-13.32533 16.067704,-18.04561 2.00339,0.17962 3.64843,1.02646 4.13169,4.03652 -6.66218,6.5718 -10.19856,13.85675 -12.968929,23.98168 z"
       id="path5204"
       inkscape:connector-curvature="0"
       sodipodi:nodetypes="cccc" />
    <path
       style="fill:#241c1c;fill-opacity:1;stroke:#000000;stroke-width:0.23147458;stroke-linecap:butt;stroke-linejoin:miter;stroke-miterlimit:4;stroke-dasharray:none;stroke-opacity:1"
       d="m 106.27391,216.70788 -2.96689,2.32485 c 0,0 4.30123,0.86066 4.90989,3.92479 l 2.18844,-2.21329 c 0,0 0.11349,-3.57 -4.13144,-4.03635 z"
       id="path5210"
       inkscape:connector-curvature="0" />
    <path
       style="fill:none;stroke:#000000;stroke-width:0.87348902;stroke-linecap:butt;stroke-linejoin:miter;stroke-miterlimit:4;stroke-dasharray:none;stroke-opacity:1"
       d="m 70.946747,247.5543 c 0,0 7.790796,-3.77768 9.576189,-6.04429 1.785391,-2.26661 8.277722,0.1679 1.298465,5.62455 -6.979255,5.45665 -8.926955,2.85425 -8.926955,2.85425"
       id="path5215"
       inkscape:connector-curvature="0" />
    <path
       style="fill:none;stroke:#000000;stroke-width:0.87348902;stroke-linecap:butt;stroke-linejoin:miter;stroke-miterlimit:4;stroke-dasharray:none;stroke-opacity:1"
       d="m 70.540974,261.82556 c 0,0 7.141567,-2.09872 11.442737,-6.38009 4.301169,-4.28137 6.492332,0.50369 6.492332,0.50369 0,0 0.730386,1.17528 -2.840396,4.11348 -3.570783,2.9382 -12.741201,5.45665 -12.741201,5.45665"
       id="path5219"
       inkscape:connector-curvature="0" />
    <path
       style="fill:none;stroke:#000000;stroke-width:0.87348902;stroke-linecap:butt;stroke-linejoin:miter;stroke-miterlimit:4;stroke-dasharray:none;stroke-opacity:1"
       d="m 48.385893,261.23791 c 0,0 8.602341,-4.53322 12.741201,-8.4788 4.138863,-3.94558 5.599637,0.1679 5.599637,0.1679 0,0 4.950402,2.9382 -11.92966,10.66147"
       id="path5221"
       inkscape:connector-curvature="0" />
    <path
       style="fill:#000000;fill-opacity:1;stroke:#000000;stroke-width:0.23111063px;stroke-linecap:butt;stroke-linejoin:miter;stroke-opacity:1"
       d="m 71.785536,269.83557 c 0,0 4.418616,3.4429 4.418616,5.22373 l -4.664859,3.2142 -4.382322,-4.53322 4.57118,-4.0828"
       id="path5223"
       inkscape:connector-curvature="0" />
    <path
       style="fill:#000000;fill-opacity:1;stroke:#000000;stroke-width:0.23111062px;stroke-linecap:butt;stroke-linejoin:miter;stroke-opacity:1"
       d="m 31.534047,259.89632 -3.220071,2.89158 c 0,0 0.148384,6.90763 2.380123,6.90763 0,0 2.642465,-2.40468 3.454007,-2.82443 0,0 -0.05761,-6.99578 -2.614059,-6.97478 z"
       id="path5229"
       inkscape:connector-curvature="0"
       sodipodi:nodetypes="ccccc" />
    <ellipse
       style="opacity:1;fill:none;fill-opacity:0.3287037;fill-rule:nonzero;stroke:none;stroke-width:0.26458332;stroke-miterlimit:4;stroke-dasharray:none;stroke-opacity:1"
       id="path5248"
       cx="76.973618"
       cy="203.18839"
       rx="42.495853"
       ry="22.717911" />
    <path
       style="opacity:1;fill:#333333;fill-opacity:1;fill-rule:nonzero;stroke:none;stroke-width:0.25627607;stroke-miterlimit:4;stroke-dasharray:none;stroke-opacity:1"
       d="m 23.747588,164.17915 c -11.690159,0 -21.1017547,9.4116 -21.1017547,21.10175 v 87.97148 c 0,11.69017 9.4115957,21.10177 21.1017547,21.10177 h 87.971482 c 11.69017,0 21.10176,-9.4116 21.10176,-21.10177 V 185.2809 c 0,-11.69015 -9.41159,-21.10175 -21.10176,-21.10175 z m 4.372006,6.35624 h 79.227486 c 0.66194,0 1.31563,0.0335 1.95986,0.0985 0.64424,0.065 1.27877,0.16167 1.90214,0.28858 0.62337,0.12691 1.23563,0.28405 1.83499,0.46969 0.59935,0.18564 1.18617,0.40014 1.75835,0.64135 0.57217,0.2412 1.12993,0.50893 1.67178,0.80255 0.54185,0.29363 1.06739,0.61292 1.57575,0.9558 0.50837,0.34289 0.99954,0.70962 1.47127,1.0986 0.47174,0.38898 0.9244,0.80001 1.35633,1.23194 0.43193,0.43194 0.84296,0.88461 1.23195,1.35634 0.38899,0.47172 0.75572,0.96291 1.0986,1.47126 0.34288,0.50837 0.66217,1.0339 0.9558,1.57576 0.29362,0.54185 0.56185,1.0996 0.80305,1.67178 0.24121,0.57218 0.45522,1.159 0.64085,1.75836 0.18563,0.59935 0.34278,1.21161 0.46969,1.83497 0.12691,0.62337 0.22355,1.25792 0.28858,1.90214 0.065,0.64424 0.0985,1.29793 0.0985,1.95987 v 79.22749 c 0,0.66193 -0.0335,1.31563 -0.0985,1.95986 -0.065,0.64424 -0.16167,1.27878 -0.28858,1.90215 -0.12691,0.62337 -0.28406,1.23563 -0.46969,1.83498 -0.18563,0.59935 -0.39964,1.18617 -0.64085,1.75835 -0.2412,0.57218 -0.50943,1.12993 -0.80305,1.67179 -0.29363,0.54184 -0.61292,1.06738 -0.9558,1.57574 -0.34288,0.50838 -0.70961,0.99955 -1.0986,1.47127 -0.38899,0.47174 -0.80002,0.92441 -1.23195,1.35633 -0.43193,0.43194 -0.88459,0.84296 -1.35633,1.23194 -0.47173,0.389 -0.9629,0.75573 -1.47127,1.09861 -0.50836,0.34288 -1.0339,0.66217 -1.57575,0.9558 -0.54185,0.29362 -1.09961,0.56184 -1.67178,0.80304 -0.57218,0.24122 -1.159,0.45522 -1.75835,0.64085 -0.59936,0.18565 -1.21162,0.34279 -1.83499,0.4697 -0.62337,0.12691 -1.2579,0.22355 -1.90214,0.28858 -0.64423,0.065 -1.29792,0.0985 -1.95986,0.0985 H 28.119594 c -0.661942,0 -1.315632,-0.0335 -1.959866,-0.0985 -0.644231,-0.065 -1.278777,-0.16167 -1.902147,-0.28858 -0.62337,-0.12691 -1.235627,-0.28405 -1.834979,-0.4697 -0.599351,-0.18563 -1.186176,-0.39963 -1.758355,-0.64085 -0.572179,-0.2412 -1.12993,-0.50942 -1.671781,-0.80304 -0.54185,-0.29363 -1.067386,-0.61292 -1.575753,-0.9558 -0.508366,-0.34288 -0.999538,-0.70961 -1.471267,-1.09861 -0.471727,-0.38898 -0.924396,-0.8 -1.356332,-1.23194 -0.431934,-0.43192 -0.842957,-0.88459 -1.231943,-1.35633 -0.388984,-0.47172 -0.755716,-0.96289 -1.098598,-1.47127 -0.342881,-0.50836 -0.662178,-1.0339 -0.955801,-1.57574 -0.293622,-0.54186 -0.561346,-1.09961 -0.802554,-1.67179 -0.241208,-0.57218 -0.455708,-1.159 -0.641347,-1.75835 -0.1856389,-0.59935 -0.3427764,-1.21161 -0.4696908,-1.83498 -0.1269142,-0.62337 -0.2235464,-1.25791 -0.2885811,-1.90215 -0.065035,-0.64423 -0.098516,-1.29793 -0.098516,-1.95986 v -79.22749 c 0,-0.66194 0.033481,-1.31563 0.098516,-1.95987 0.065035,-0.64422 0.1616669,-1.27877 0.2885811,-1.90214 0.1269144,-0.62336 0.2840519,-1.23562 0.4696908,-1.83497 0.185639,-0.59936 0.400139,-1.18618 0.641347,-1.75836 0.241208,-0.57218 0.508932,-1.12993 0.802554,-1.67178 0.293623,-0.54186 0.61292,-1.06739 0.955801,-1.57576 0.342882,-0.50835 0.709614,-0.99954 1.098598,-1.47126 0.388986,-0.47173 0.800009,-0.9244 1.231943,-1.35634 0.431936,-0.43193 0.884605,-0.84296 1.356332,-1.23194 0.471729,-0.38898 0.962901,-0.75571 1.471267,-1.0986 0.508367,-0.34288 1.033903,-0.66217 1.575753,-0.9558 0.541851,-0.29362 1.099602,-0.56135 1.671781,-0.80255 0.572179,-0.24121 1.159004,-0.45571 1.758355,-0.64135 0.599352,-0.18564 1.211609,-0.34278 1.834979,-0.46969 0.62337,-0.12691 1.257916,-0.22354 1.902147,-0.28858 0.644234,-0.065 1.297924,-0.0985 1.959866,-0.0985 z"
       id="rect5254"
       inkscape:connector-curvature="0" />
    <ellipse
       style="opacity:1;fill:none;fill-opacity:1;fill-rule:nonzero;stroke:none;stroke-width:0.99999994;stroke-linejoin:miter;stroke-miterlimit:4;stroke-dasharray:none;stroke-dashoffset:0;stroke-opacity:1"
       id="path4518"
       cx="42.711311"
       cy="233.97246"
       rx="13.607142"
       ry="10.488839" />
    <path
       style="opacity:1;fill:#501616;fill-opacity:1;fill-rule:nonzero;stroke:none;stroke-width:0.99999994;stroke-linejoin:miter;stroke-miterlimit:4;stroke-dasharray:none;stroke-dashoffset:0;stroke-opacity:1"
       d="m 47.436012,229.90921 c 2e-6,1.35688 -1.29025,3.30172 -1.700893,2.45685 -0.426958,-0.87844 -0.974021,-2.34604 -1.700893,-2.45685 -2e-6,-1.35688 0.761514,-2.45685 1.700893,-2.45685 0.939379,0 1.700895,1.09997 1.700893,2.45685 z"
       id="path4522"
       inkscape:connector-curvature="0"
       sodipodi:nodetypes="cscsc" />
    <path
       style="opacity:1;fill:#501616;fill-opacity:1;fill-rule:nonzero;stroke:none;stroke-width:0.99999994;stroke-linejoin:miter;stroke-miterlimit:4;stroke-dasharray:none;stroke-dashoffset:0;stroke-opacity:1"
       d="m 64.255951,230.94865 c -0.689822,0.2659 -1.795921,1.2025 -1.984375,3.11831 -0.107288,1.09068 -1.984377,-1.39612 -1.984375,-3.11831 10e-7,-1.72219 0.888436,-3.1183 1.984375,-3.1183 1.095939,0 3.591319,2.49889 1.984375,3.1183 z"
       id="path4526"
       inkscape:connector-curvature="0"
       sodipodi:nodetypes="sssss" />
    <ellipse
       style="opacity:1;fill:#501616;fill-opacity:1;fill-rule:nonzero;stroke:#000000;stroke-width:0.99999994;stroke-linejoin:miter;stroke-miterlimit:4;stroke-dasharray:none;stroke-dashoffset:0;stroke-opacity:1"
       id="path4530"
       cx="79.28051"
       cy="230.75966"
       rx="2.9293153"
       ry="2.3623512" />
    <path
       style="fill:#d7eef4;stroke:#000000;stroke-width:0.99999999;stroke-linecap:butt;stroke-linejoin:miter;stroke-opacity:1;fill-opacity:1;stroke-miterlimit:4;stroke-dasharray:none"
       d="m 80.247674,229.24716 c 2.138156,-1.1359 4.637344,-3.67769 5.826585,-3.04156 1.189242,0.63614 4.062389,1.03704 2.592406,2.30657 -1.469982,1.26953 -4.34313,2.93996 -5.679476,2.93996 -1.33635,0 -2.472246,-0.73499 -2.472246,-0.73499 z"
       id="path4534"
       inkscape:connector-curvature="0" />
  </g>
</svg>
